# xmcd
#
# Track frame offsets:
#	150
#	11732
#	24822
#	37950
#	51457
#	65397
#	79220
#	90380
#	104475
#	116320
#	130857
#	145010
#	158752
#	171522
#	184370
#	198045
#	209905
#	221615
#	232710
#	243352
#	255730
#	267890
#	282590
#	295070
#	307785
#	321362
#	333905
#
# Disc length: 4615
#
# Revision: 1
# Processed by: cddbd v1.5.1PL0 Copyright (c) Steve Scherf et al.
# Submitted via: dBpowerAMP V4.0
# Normalized: r0:TDELIM( - )
#
DISCID=8212051b
DTITLE=Various Artist - Motown The Collection - The Happening 1966 - 1967
DYEAR=1900
DGENRE=Motown
TTITLE0=Four Tops - 7-Rooms Of Gloom
TTITLE1=Isley Brothers - Got To Have You Back
TTITLE2=Brenda Holloway - Just Look What You've Done
TTITLE3=Temptations - You're My Everything
TTITLE4=Stevie Wonder - Yester Me, Yester You, Yesterday
TTITLE5=Four Tops - Bernadette
TTITLE6=Marvin Gaye and Tami Terrell - Ain't No Mountain High Enough
TTITLE7=R. Dean Taylor - Gotta See Jane
TTITLE8=Chris Clark - I Wnat To Go Back There Again
TTITLE9=Marvin Gaye - I Heard It Through The Grapevine
TTITLE10=Temptations - All I Need
TTITLE11=Marvin Gaye and Tammi Terrell - Your Precious Love
TTITLE12=Diana Ross and The Supremes - The Happening
TTITLE13=Diana Ross and The Supremes - Reflections
TTITLE14=Jimmy Ruffin - Farewell Is A lonely Sound
TTITLE15=Stevie Wonder - I Was Made To Love Her
TTITLE16=Marvelettes - My Baby Must Be A Magician
TTITLE17=Jr Walker and The All Stars - What Does It Take (To Win Your Love)
TTITLE18=Marvin Gaye and Tammi Terrell - If I Could Build The Whole World Around You
TTITLE19=Edwin Starr - Way Over There
TTITLE20=Martha Reeves and The Vandellas - (We've Got) Honey Love
TTITLE21=Diana Ross and The Supremes - Forever Came Today
TTITLE22=Temptations - I Wish It Would Rain
TTITLE23=Isley Brothers - Behind A Painted Smile
TTITLE24=Jr Walker and The All Stars - Come See About Me
TTITLE25=Gladys Knight and The Pips - I Heard It Through The Grapevine
TTITLE26=Marvelettes - Reachin' For Something I Can't Have
EXTD=tim1701 RIP
EXTT0=
EXTT1=
EXTT2=
EXTT3=
EXTT4=
EXTT5=
EXTT6=
EXTT7=
EXTT8=
EXTT9=
EXTT10=
EXTT11=
EXTT12=
EXTT13=
EXTT14=
EXTT15=
EXTT16=
EXTT17=
EXTT18=
EXTT19=
EXTT20=
EXTT21=
EXTT22=
EXTT23=
EXTT24=
EXTT25=
EXTT26=
PLAYORDER=
